<mxfile host="app.diagrams.net" modified="2023-05-16T02:09:14.843Z" agent="Mozilla/5.0 (Macintosh; Intel Mac OS X 10_15_7) AppleWebKit/537.36 (KHTML, like Gecko) Chrome/112.0.0.0 Safari/537.36" version="21.3.2" etag="zR09YSk-aR2QR57rog12" type="github">
  <diagram name="Page-1" id="Jc_dgExpH8lOmRhWae9o">
    <mxGraphModel>
      <root>
        <mxCell id="0" />
        <mxCell id="1" parent="0" />
      </root>
    </mxGraphModel>
  </diagram>
</mxfile>
